<svg width="230" height="108" viewBox="0 0 230 108" fill="none" xmlns="http://www.w3.org/2000/svg">
<path d="M63.0176 9.62402C63.0469 9.68262 63.1055 9.8291 63.1934 10.0635C63.2812 10.2686 63.3691 10.5176 63.457 10.8105C63.5449 11.0742 63.6182 11.3525 63.6768 11.6455C63.7646 11.9092 63.8086 12.0996 63.8086 12.2168C63.8086 13.2129 63.6035 14.4141 63.1934 15.8203C62.7832 17.1973 62.2119 18.6621 61.4795 20.2148C60.7764 21.7676 59.9414 23.3496 58.9746 24.9609C58.0078 26.5723 56.9824 28.1104 55.8984 29.5752C54.8145 31.0107 53.6865 32.3291 52.5146 33.5303C51.3721 34.7021 50.2441 35.6396 49.1309 36.3428C48.7207 35.9619 48.2227 35.5078 47.6367 34.9805C47.0801 34.4531 46.4795 33.8965 45.835 33.3105C45.1904 32.6953 44.5459 32.0801 43.9014 31.4648C43.2568 30.8496 42.6562 30.249 42.0996 29.6631C42.9492 28.9893 43.9014 28.1104 44.9561 27.0264C46.04 25.9131 47.124 24.6826 48.208 23.335C49.3213 21.9873 50.4053 20.5957 51.46 19.1602C52.5146 17.7246 53.4229 16.3477 54.1846 15.0293C54.9756 13.6816 55.5908 12.4658 56.0303 11.3818C56.4697 10.2979 56.6309 9.43359 56.5137 8.78906C56.4258 8.4668 56.2793 8.24707 56.0742 8.12988C55.8984 7.9834 55.5615 7.91016 55.0635 7.91016C53.2764 7.91016 51.2109 8.26172 48.8672 8.96484C46.5234 9.66797 44.0771 10.6934 41.5283 12.041C38.9795 13.3594 36.4014 14.9854 33.7939 16.9189C31.2158 18.8525 28.7842 21.0352 26.499 23.4668C24.2432 25.8984 22.2217 28.5645 20.4346 31.4648C18.6768 34.3652 17.3291 37.4561 16.3916 40.7373C18.4424 40.708 20.3906 40.6348 22.2363 40.5176C24.082 40.3711 25.8398 40.2246 27.5098 40.0781C29.1797 39.9316 30.7764 39.7998 32.2998 39.6826C33.8232 39.5654 35.3027 39.5068 36.7383 39.5068C37.5 39.5068 38.3203 39.917 39.1992 40.7373C40.0781 41.5576 40.8984 42.5391 41.6602 43.6816C42.4219 44.8242 43.0518 45.9961 43.5498 47.1973C44.0479 48.3984 44.2969 49.3652 44.2969 50.0977C44.2969 52.1777 43.7549 54.2725 42.6709 56.3818C41.6162 58.4619 40.1807 60.4834 38.3643 62.4463C36.5771 64.3799 34.4971 66.1963 32.124 67.8955C29.751 69.5654 27.2461 71.0156 24.6094 72.2461C22.002 73.5059 19.3359 74.4873 16.6113 75.1904C13.8867 75.9229 11.2939 76.2891 8.83301 76.2891C8.51074 76.0254 8.08594 75.6152 7.55859 75.0586C7.03125 74.5312 6.45996 73.9307 5.84473 73.2568C5.25879 72.6123 4.64355 71.9238 3.99902 71.1914C3.38379 70.459 2.8125 69.7559 2.28516 69.082C1.72852 68.4082 1.24512 67.793 0.834961 67.2363C0.424805 66.6797 0.146484 66.2549 0 65.9619C1.61133 66.1963 3.54492 66.2549 5.80078 66.1377C8.08594 66.0205 10.4883 65.6982 13.0078 65.1709C15.5273 64.6436 18.0615 63.8965 20.6104 62.9297C23.1885 61.9336 25.5908 60.6885 27.8174 59.1943C30.0439 57.7002 32.0068 55.9277 33.7061 53.877C35.4053 51.7969 36.6357 49.3945 37.3975 46.6699C35.6982 46.6992 34.1602 46.7871 32.7832 46.9336C31.4062 47.0508 30.0732 47.1973 28.7842 47.373C27.4951 47.5195 26.1768 47.6514 24.8291 47.7686C23.4814 47.8857 21.9873 47.9443 20.3467 47.9443C19.8193 47.9443 19.248 47.9443 18.6328 47.9443C18.0176 47.915 17.4023 47.8711 16.7871 47.8125C16.1719 47.7246 15.5859 47.5928 15.0293 47.417C14.4727 47.2412 14.0186 46.9922 13.667 46.6699C12.876 45.9961 12.1143 45.293 11.3818 44.5605C10.6494 43.7988 9.99023 43.0371 9.4043 42.2754C8.81836 41.4844 8.34961 40.6934 7.99805 39.9023C7.64648 39.1113 7.4707 38.3496 7.4707 37.6172C7.4707 35.3906 8.02734 32.915 9.14062 30.1904C10.2539 27.4365 11.792 24.668 13.7549 21.8848C15.7471 19.1016 18.0908 16.4062 20.7861 13.7988C23.4814 11.1621 26.4111 8.81836 29.5752 6.76758C32.7686 4.7168 36.123 3.07617 39.6387 1.8457C43.1543 0.615234 46.7139 0 50.3174 0C51.5771 0 52.7197 0.19043 53.7451 0.571289C54.7998 0.952148 55.752 1.4502 56.6016 2.06543C57.4512 2.68066 58.2129 3.36914 58.8867 4.13086C59.5605 4.86328 60.1611 5.58105 60.6885 6.28418C61.2158 6.9873 61.6699 7.64648 62.0508 8.26172C62.4316 8.84766 62.7539 9.30176 63.0176 9.62402Z" fill="black"/>
<path d="M84.1113 63.8086C81.4746 66.1816 78.7646 68.4229 75.9814 70.5322C73.1982 72.6416 70.415 74.6777 67.6318 76.6406C67.2217 77.8711 66.7529 79.1748 66.2256 80.5518C65.6982 81.9287 65.0537 83.4961 64.292 85.2539C63.4424 87.1875 62.4756 89.0771 61.3916 90.9229C60.3076 92.7686 59.1504 94.4971 57.9199 96.1084C56.7188 97.749 55.4736 99.2432 54.1846 100.591C52.8955 101.938 51.6211 103.096 50.3613 104.062C49.1309 105.059 47.9443 105.82 46.8018 106.348C45.6299 106.904 44.5605 107.183 43.5938 107.183C43.125 107.183 42.5537 107.007 41.8799 106.655C41.2061 106.304 40.5615 105.85 39.9463 105.293C39.3311 104.766 38.8184 104.194 38.4082 103.579C37.9688 102.964 37.749 102.393 37.749 101.865C37.749 100.02 38.2471 98.2031 39.2432 96.416C40.2393 94.6582 41.6162 92.8857 43.374 91.0986C45.1025 89.3115 47.1387 87.4951 49.4824 85.6494C51.8555 83.833 54.4043 81.958 57.1289 80.0244C57.9785 77.7686 58.7988 75.4248 59.5898 72.9932C60.4102 70.5322 61.2012 68.1006 61.9629 65.6982C60.7031 67.3096 59.4873 68.7158 58.3154 69.917C57.1436 71.1182 56.0596 72.1436 55.0635 72.9932C54.0674 73.8135 53.2031 74.4727 52.4707 74.9707C51.7383 75.498 51.1816 75.8936 50.8008 76.1572C50.5664 76.3037 50.2881 76.4062 49.9658 76.4648C49.6436 76.5527 49.3506 76.5967 49.0869 76.5967C48.5303 76.5967 47.915 76.4209 47.2412 76.0693C46.5674 75.7471 45.9521 75.3223 45.3955 74.7949C44.8096 74.2969 44.3262 73.7402 43.9453 73.125C43.5352 72.5098 43.3301 71.9238 43.3301 71.3672C43.3301 70.7227 43.5498 69.6973 43.9893 68.291C44.3994 66.8555 44.9707 65.127 45.7031 63.1055C46.4062 61.084 47.2412 58.8135 48.208 56.2939C49.1748 53.7744 50.2148 51.0937 51.3281 48.2519C51.3867 48.1055 51.4307 48.0469 51.46 48.0762C51.5186 48.0762 51.6064 48.0762 51.7236 48.0762C52.2803 48.1641 53.042 48.3984 54.0088 48.7793C54.9756 49.1309 55.9131 49.5264 56.8213 49.9658C57.7588 50.4053 58.5645 50.8301 59.2383 51.2402C59.9121 51.6211 60.249 51.8848 60.249 52.0312C60.1611 52.2363 59.9268 52.7197 59.5459 53.4814C59.1943 54.2432 58.7695 55.166 58.2715 56.25C57.8027 57.3047 57.29 58.4619 56.7334 59.7217C56.2061 60.9521 55.708 62.1387 55.2393 63.2812C54.7998 64.4238 54.4336 65.4639 54.1406 66.4014C53.8477 67.3096 53.7012 67.9834 53.7012 68.4229C53.7012 68.54 53.7598 68.5986 53.877 68.5986C54.082 68.5986 54.5215 68.335 55.1953 67.8076C55.8984 67.2803 56.7627 66.4453 57.7881 65.3027C58.8135 64.1602 59.9707 62.71 61.2598 60.9521C62.5488 59.165 63.9111 57.0264 65.3467 54.5361C65.9326 52.6025 66.416 51.0644 66.7969 49.9219C67.1777 48.75 67.4268 48.1641 67.5439 48.1641C67.7197 48.1641 68.1738 48.3838 68.9062 48.8232C69.6387 49.2627 70.415 49.79 71.2354 50.4053C72.0557 50.9912 72.7881 51.5918 73.4326 52.207C74.0771 52.793 74.3994 53.2471 74.3994 53.5693C74.3994 53.7158 74.3848 53.8477 74.3555 53.9648C74.3262 54.082 74.2822 54.2139 74.2236 54.3603C73.5498 56.4111 72.9639 58.2715 72.4658 59.9414C71.9678 61.582 71.5137 63.0908 71.1035 64.4678C70.7227 65.8447 70.3711 67.1191 70.0488 68.291C69.7559 69.4336 69.4629 70.5469 69.1699 71.6309C71.3672 70.0488 73.5498 68.4375 75.7178 66.7969C77.8857 65.127 80.0244 63.3838 82.1338 61.5674L84.1113 63.8086ZM43.3301 102.349C43.8574 102.349 44.5898 101.836 45.5273 100.811C46.4648 99.8145 47.4756 98.5254 48.5596 96.9434C49.6436 95.3613 50.7275 93.5889 51.8115 91.626C52.9248 89.6924 53.9062 87.7881 54.7559 85.9131C53.6426 86.8506 52.3975 87.876 51.0205 88.9893C49.6436 90.1025 48.3545 91.3184 47.1533 92.6367C45.9521 93.9551 44.9414 95.3613 44.1211 96.8555C43.3008 98.3789 42.8906 99.9902 42.8906 101.689C42.8906 102.129 43.0371 102.349 43.3301 102.349Z" fill="black"/>
<path d="M90 53.833C89.6484 54.7705 89.2969 55.7227 88.9453 56.6894C88.5938 57.6562 88.2422 58.6523 87.8906 59.6777C89.7363 57.5684 91.3184 55.8545 92.6367 54.5361C93.9844 53.1885 95.1123 52.1338 96.0205 51.3721C96.958 50.6103 97.7051 50.0977 98.2617 49.834C98.8477 49.541 99.3018 49.3945 99.624 49.3945C100.005 49.3945 100.576 49.585 101.338 49.9658C102.1 50.3467 102.861 50.8154 103.623 51.3721C104.414 51.9287 105.088 52.5 105.645 53.0859C106.23 53.6719 106.523 54.1846 106.523 54.624C106.523 54.7119 106.509 54.8291 106.479 54.9756C106.45 55.0928 106.406 55.2539 106.348 55.459C106.113 56.1914 105.806 57.0557 105.425 58.0518C105.073 59.0478 104.692 60.0879 104.282 61.1719C103.872 62.2266 103.462 63.2959 103.052 64.3799C102.642 65.4346 102.275 66.4307 101.953 67.3682C101.631 68.3057 101.367 69.126 101.162 69.8291C100.957 70.5322 100.854 71.0449 100.854 71.3672C100.854 71.543 100.942 71.6309 101.118 71.6309C101.44 71.6309 101.924 71.4404 102.568 71.0596C103.213 70.6787 103.945 70.1807 104.766 69.5654C105.615 68.9502 106.494 68.2764 107.402 67.5439C108.311 66.8115 109.175 66.0938 109.995 65.3906C110.845 64.6582 111.606 63.999 112.28 63.4131C112.954 62.8271 113.467 62.3877 113.818 62.0947C114.111 62.3584 114.434 62.6953 114.785 63.1055C115.137 63.5156 115.474 63.8965 115.796 64.248C115.151 64.8926 114.346 65.6836 113.379 66.6211C112.412 67.5293 111.357 68.4668 110.215 69.4336C109.102 70.4004 107.93 71.3672 106.699 72.334C105.498 73.3008 104.326 74.165 103.184 74.9268C102.041 75.6885 100.972 76.3037 99.9756 76.7725C98.9795 77.2412 98.1445 77.4756 97.4707 77.4756C97.0312 77.4756 96.4746 77.3145 95.8008 76.9922C95.127 76.6992 94.4678 76.3184 93.8232 75.8496C93.208 75.4102 92.6807 74.9121 92.2412 74.3555C91.8018 73.7988 91.582 73.2568 91.582 72.7295C91.8457 71.5283 92.1973 70.166 92.6367 68.6426C93.1055 67.1191 93.6035 65.5664 94.1309 63.9844C94.6582 62.373 95.2002 60.791 95.7568 59.2383C96.3428 57.6562 96.8994 56.2061 97.4268 54.8877L97.3389 54.9756C96.7822 55.6494 95.9766 56.543 94.9219 57.6562C93.8965 58.7402 92.7246 60.1465 91.4062 61.875C90.0879 63.5742 88.6963 65.6396 87.2314 68.0713C85.7666 70.4736 84.3311 73.3301 82.9248 76.6406C82.749 77.0508 82.5879 77.373 82.4414 77.6074C82.2949 77.8418 82.0166 77.959 81.6064 77.959C81.1084 77.959 80.5371 77.8125 79.8926 77.5195C79.2773 77.2559 78.6475 76.8896 78.0029 76.4209C77.3291 75.9814 76.6699 75.4834 76.0254 74.9268C75.3516 74.3701 74.751 73.8135 74.2236 73.2568C74.2236 73.0811 74.3115 72.583 74.4873 71.7627C74.6338 70.9424 74.8535 69.917 75.1465 68.6865C75.4395 67.4268 75.8057 66.0059 76.2451 64.4238C76.6846 62.8125 77.1826 61.1279 77.7393 59.3701C78.2959 57.6123 78.9111 55.8252 79.585 54.0088C80.2295 52.1631 80.9326 50.3906 81.6943 48.6914C82.9248 49.2773 84.2871 49.9951 85.7812 50.8447C87.3047 51.6943 88.7109 52.6904 90 53.833Z" fill="black"/>
<path d="M114.521 79.1016C113.994 79.1016 113.394 78.9258 112.72 78.5742C112.046 78.252 111.357 77.7979 110.654 77.2119C109.951 76.6553 109.277 75.9961 108.633 75.2344C107.959 74.4434 107.402 73.623 106.963 72.7734C106.787 72.4512 106.67 72.085 106.611 71.6748C106.553 71.2646 106.523 70.7373 106.523 70.0928C106.523 68.4229 106.787 66.7529 107.314 65.083C107.812 63.3838 108.516 61.7725 109.424 60.249C110.332 58.7256 111.431 57.3047 112.72 55.9863C113.979 54.6387 115.356 53.4814 116.851 52.5146C118.345 51.5478 119.941 50.7861 121.641 50.2295C123.34 49.6728 125.068 49.3945 126.826 49.3945C127.09 49.3945 127.441 49.541 127.881 49.834C128.35 50.0977 128.848 50.4639 129.375 50.9326C129.902 51.4014 130.43 51.9287 130.957 52.5146C131.514 53.1006 132.012 53.7012 132.451 54.3164C132.891 54.9023 133.242 55.4883 133.506 56.0742C133.799 56.6309 133.945 57.1289 133.945 57.5684C133.799 58.125 133.345 58.7402 132.583 59.4141C131.821 60.0586 130.913 60.6738 129.858 61.2598C128.833 61.8164 127.749 62.2852 126.606 62.666C125.464 63.0469 124.468 63.2373 123.618 63.2373C123.12 63.2373 122.871 63.0908 122.871 62.7979C122.871 62.4756 123.091 62.0068 123.53 61.3916C123.97 60.7471 124.453 60.0586 124.98 59.3262C125.537 58.5644 126.035 57.8174 126.475 57.085C126.914 56.3232 127.134 55.6787 127.134 55.1514C127.134 54.8877 127.061 54.668 126.914 54.4922C126.797 54.3164 126.621 54.2285 126.387 54.2285C125.742 54.2285 125.068 54.5215 124.365 55.1074C123.662 55.6934 122.959 56.4697 122.256 57.4365C121.553 58.4033 120.879 59.5166 120.234 60.7764C119.59 62.0068 119.019 63.2812 118.521 64.5996C118.052 65.918 117.671 67.2363 117.378 68.5547C117.085 69.873 116.938 71.0742 116.938 72.1582C116.938 72.8027 117.129 73.2568 117.51 73.5205C117.891 73.7549 118.477 73.8721 119.268 73.8721C121.23 73.8721 123.12 73.5498 124.937 72.9053C126.782 72.2314 128.54 71.3818 130.21 70.3564C131.909 69.3018 133.521 68.1299 135.044 66.8408C136.567 65.5518 138.003 64.2627 139.351 62.9736C139.673 63.3545 140.068 63.7354 140.537 64.1162C141.006 64.4678 141.357 64.7754 141.592 65.0391C139.775 66.9434 137.842 68.7598 135.791 70.4883C133.77 72.1875 131.631 73.6816 129.375 74.9707C127.119 76.2305 124.746 77.2266 122.256 77.959C119.795 78.7207 117.217 79.1016 114.521 79.1016Z" fill="black"/>
<path d="M146.602 75.0586C147.07 75.0586 147.7 74.8535 148.491 74.4434C149.312 74.0332 150.205 73.5205 151.172 72.9053C152.139 72.2607 153.149 71.5576 154.204 70.7959C155.259 70.0342 156.24 69.2871 157.148 68.5547C158.086 67.8223 158.921 67.1484 159.653 66.5332C160.386 65.918 160.928 65.4639 161.279 65.1709C161.543 65.4346 161.851 65.7715 162.202 66.1816C162.583 66.5918 162.935 66.9727 163.257 67.3242C162.612 67.9688 161.807 68.7598 160.84 69.6973C159.873 70.6055 158.818 71.543 157.676 72.5098C156.562 73.4766 155.391 74.4434 154.16 75.4102C152.959 76.377 151.772 77.2412 150.601 78.0029C149.458 78.7646 148.389 79.3799 147.393 79.8486C146.396 80.3174 145.562 80.5518 144.888 80.5518C143.979 80.5518 143.013 80.2295 141.987 79.585C140.991 78.9404 140.054 78.1934 139.175 77.3438C138.296 76.4648 137.549 75.5859 136.934 74.707C136.318 73.8281 135.967 73.1689 135.879 72.7295C135.82 72.5537 135.791 72.3486 135.791 72.1143C135.791 71.8506 135.791 71.5723 135.791 71.2793C135.791 69.8145 135.981 67.9688 136.362 65.7422C136.714 63.4863 137.197 61.1133 137.812 58.623C138.428 56.1035 139.131 53.6133 139.922 51.1523C140.742 48.6621 141.592 46.4648 142.471 44.5605C144.258 40.6641 146.089 37.207 147.964 34.1895C149.868 31.1719 151.729 28.5498 153.545 26.3232C155.361 24.0674 157.104 22.1777 158.774 20.6543C160.444 19.1309 161.938 17.9004 163.257 16.9629C164.604 16.0254 165.732 15.3516 166.641 14.9414C167.578 14.5312 168.223 14.3262 168.574 14.3262C169.131 14.5312 169.688 14.8389 170.244 15.249C170.83 15.6299 171.372 16.04 171.87 16.4795C172.368 16.9189 172.808 17.3584 173.188 17.7978C173.569 18.208 173.848 18.5156 174.023 18.7207C174.258 18.9551 174.404 19.1895 174.463 19.4238C174.551 19.6289 174.595 19.9072 174.595 20.2588C174.595 20.9619 174.419 21.9287 174.067 23.1592C173.716 24.3896 173.057 25.957 172.09 27.8613C171.123 29.7363 169.775 31.9922 168.047 34.6289C166.348 37.2656 164.121 40.3418 161.367 43.8574C160.078 45.498 158.716 47.168 157.28 48.8672C156.05 50.332 154.629 51.9287 153.018 53.6572C151.406 55.3857 149.751 57.041 148.052 58.623C147.202 61.8457 146.602 64.6875 146.25 67.1484C145.928 69.6094 145.767 71.5283 145.767 72.9053C145.767 73.8135 145.84 74.3994 145.986 74.6631C146.133 74.9268 146.338 75.0586 146.602 75.0586ZM153.633 42.8467C153.135 43.96 152.666 45.0439 152.227 46.0986C151.816 47.1533 151.421 48.1934 151.04 49.2187C151.948 48.1934 152.769 47.2119 153.501 46.2744C154.263 45.3369 154.907 44.5312 155.435 43.8574C156.05 43.0664 156.606 42.3193 157.104 41.6162C159.155 38.7451 160.928 36.1084 162.422 33.7061C163.916 31.3037 165.146 29.1943 166.113 27.3779C167.08 25.5322 167.783 24.0088 168.223 22.8076C168.691 21.5771 168.926 20.6982 168.926 20.1709C168.926 20.0244 168.911 19.9219 168.882 19.8633C168.882 19.7754 168.809 19.7314 168.662 19.7314C168.398 19.7314 167.798 20.1709 166.86 21.0498C165.923 21.8994 164.766 23.2617 163.389 25.1367C162.041 27.0117 160.518 29.4141 158.818 32.3438C157.148 35.2441 155.42 38.7451 153.633 42.8467Z" fill="black"/>
<path d="M198.169 64.0723C195.532 66.4453 192.822 68.6865 190.039 70.7959C187.255 72.9053 184.472 74.9414 181.689 76.9043C181.279 78.1348 180.81 79.4385 180.283 80.8154C179.755 82.1924 179.111 83.7598 178.349 85.5176C177.5 87.4512 176.533 89.3408 175.449 91.1865C174.365 93.0322 173.208 94.7607 171.977 96.3721C170.776 98.0127 169.531 99.5068 168.242 100.854C166.953 102.202 165.678 103.359 164.419 104.326C163.188 105.322 162.002 106.084 160.859 106.611C159.687 107.168 158.618 107.446 157.651 107.446C157.182 107.446 156.611 107.271 155.937 106.919C155.263 106.567 154.619 106.113 154.003 105.557C153.388 105.029 152.876 104.458 152.465 103.843C152.026 103.228 151.806 102.656 151.806 102.129C151.806 100.283 152.304 98.4668 153.3 96.6797C154.296 94.9219 155.673 93.1494 157.431 91.3623C159.16 89.5752 161.196 87.7588 163.54 85.9131C165.913 84.0967 168.461 82.2217 171.186 80.2881C172.036 78.0322 172.856 75.6885 173.647 73.2568C174.467 70.7959 175.258 68.3643 176.02 65.9619C174.76 67.5732 173.544 68.9795 172.373 70.1807C171.201 71.3818 170.117 72.4072 169.121 73.2568C168.125 74.0771 167.26 74.7363 166.528 75.2344C165.795 75.7617 165.239 76.1572 164.858 76.4209C164.624 76.5674 164.345 76.6699 164.023 76.7285C163.701 76.8164 163.408 76.8604 163.144 76.8604C162.587 76.8604 161.972 76.6846 161.298 76.333C160.625 76.0107 160.009 75.5859 159.453 75.0586C158.867 74.5605 158.383 74.0039 158.002 73.3887C157.592 72.7734 157.387 72.1875 157.387 71.6309C157.387 70.9863 157.607 69.9609 158.046 68.5547C158.457 67.1191 159.028 65.3906 159.76 63.3691C160.463 61.3477 161.298 59.0771 162.265 56.5576C163.232 54.0381 164.272 51.3574 165.385 48.5156C165.444 48.3691 165.488 48.3105 165.517 48.3398C165.576 48.3398 165.664 48.3398 165.781 48.3398C166.337 48.4277 167.099 48.6621 168.066 49.043C169.033 49.3945 169.97 49.79 170.878 50.2295C171.816 50.6689 172.622 51.0937 173.295 51.5039C173.969 51.8848 174.306 52.1484 174.306 52.2949C174.218 52.5 173.984 52.9834 173.603 53.7451C173.252 54.5068 172.827 55.4297 172.329 56.5137C171.86 57.5684 171.347 58.7256 170.791 59.9853C170.263 61.2158 169.765 62.4023 169.296 63.5449C168.857 64.6875 168.491 65.7275 168.198 66.665C167.905 67.5732 167.758 68.2471 167.758 68.6865C167.758 68.8037 167.817 68.8623 167.934 68.8623C168.139 68.8623 168.579 68.5986 169.252 68.0713C169.956 67.5439 170.82 66.709 171.845 65.5664C172.871 64.4238 174.028 62.9736 175.317 61.2158C176.606 59.4287 177.968 57.29 179.404 54.7998C179.99 52.8662 180.473 51.3281 180.854 50.1855C181.235 49.0137 181.484 48.4277 181.601 48.4277C181.777 48.4277 182.231 48.6475 182.963 49.0869C183.696 49.5264 184.472 50.0537 185.293 50.6689C186.113 51.2549 186.845 51.8555 187.49 52.4707C188.134 53.0566 188.457 53.5107 188.457 53.833C188.457 53.9795 188.442 54.1113 188.413 54.2285C188.383 54.3457 188.339 54.4775 188.281 54.624C187.607 56.6748 187.021 58.5352 186.523 60.2051C186.025 61.8457 185.571 63.3545 185.161 64.7314C184.78 66.1084 184.428 67.3828 184.106 68.5547C183.813 69.6973 183.52 70.8105 183.227 71.8945C185.424 70.3125 187.607 68.7012 189.775 67.0605C191.943 65.3906 194.082 63.6475 196.191 61.8311L198.169 64.0723ZM157.387 102.612C157.915 102.612 158.647 102.1 159.585 101.074C160.522 100.078 161.533 98.7891 162.617 97.207C163.701 95.625 164.785 93.8525 165.869 91.8896C166.982 89.9561 167.963 88.0518 168.813 86.1768C167.7 87.1143 166.455 88.1396 165.078 89.2529C163.701 90.3662 162.412 91.582 161.21 92.9004C160.009 94.2188 158.999 95.625 158.178 97.1191C157.358 98.6426 156.948 100.254 156.948 101.953C156.948 102.393 157.094 102.612 157.387 102.612Z" fill="black"/>
<path d="M204.057 52.998C203.706 53.9355 203.354 54.8877 203.002 55.8545C202.651 56.8213 202.299 57.8174 201.948 58.8428C203.794 56.7334 205.376 55.0195 206.694 53.7012C208.042 52.3535 209.169 51.2988 210.078 50.5371C211.015 49.7754 211.762 49.2627 212.319 48.999C212.905 48.7061 213.359 48.5596 213.681 48.5596C214.062 48.5596 214.633 48.75 215.395 49.1309C216.157 49.5117 216.919 49.9805 217.68 50.5371C218.471 51.0937 219.145 51.665 219.702 52.251C220.288 52.8369 220.581 53.3496 220.581 53.7891C220.581 53.8769 220.566 53.9941 220.537 54.1406C220.507 54.2578 220.463 54.4189 220.405 54.624C220.17 55.3564 219.863 56.2207 219.482 57.2168C219.13 58.2129 218.75 59.2529 218.339 60.3369C217.929 61.3916 217.519 62.4609 217.109 63.5449C216.699 64.5996 216.333 65.5957 216.01 66.5332C215.688 67.4707 215.424 68.291 215.219 68.9941C215.014 69.6973 214.912 70.21 214.912 70.5322C214.912 70.708 215 70.7959 215.175 70.7959C215.498 70.7959 215.981 70.6055 216.626 70.2246C217.27 69.8438 218.002 69.3457 218.823 68.7305C219.672 68.1152 220.551 67.4414 221.46 66.709C222.368 65.9766 223.232 65.2588 224.052 64.5557C224.902 63.8232 225.664 63.1641 226.337 62.5781C227.011 61.9922 227.524 61.5527 227.876 61.2598C228.169 61.5234 228.491 61.8603 228.842 62.2705C229.194 62.6807 229.531 63.0615 229.853 63.4131C229.209 64.0576 228.403 64.8486 227.436 65.7861C226.469 66.6943 225.415 67.6318 224.272 68.5986C223.159 69.5654 221.987 70.5322 220.756 71.499C219.555 72.4658 218.383 73.3301 217.241 74.0918C216.098 74.8535 215.029 75.4688 214.033 75.9375C213.037 76.4062 212.202 76.6406 211.528 76.6406C211.088 76.6406 210.532 76.4795 209.858 76.1572C209.184 75.8643 208.525 75.4834 207.88 75.0146C207.265 74.5752 206.738 74.0771 206.298 73.5205C205.859 72.9639 205.639 72.4219 205.639 71.8945C205.903 70.6934 206.254 69.3311 206.694 67.8076C207.163 66.2842 207.661 64.7314 208.188 63.1494C208.715 61.5381 209.257 59.9561 209.814 58.4033C210.4 56.8213 210.957 55.3711 211.484 54.0527L211.396 54.1406C210.839 54.8144 210.034 55.708 208.979 56.8213C207.954 57.9053 206.782 59.3115 205.463 61.04C204.145 62.7393 202.753 64.8047 201.289 67.2363C199.824 69.6387 198.388 72.4951 196.982 75.8057C196.806 76.2158 196.645 76.5381 196.499 76.7725C196.352 77.0068 196.074 77.124 195.664 77.124C195.166 77.124 194.594 76.9775 193.95 76.6846C193.335 76.4209 192.705 76.0547 192.06 75.5859C191.386 75.1465 190.727 74.6484 190.083 74.0918C189.409 73.5352 188.808 72.9785 188.281 72.4219C188.281 72.2461 188.369 71.748 188.544 70.9277C188.691 70.1074 188.911 69.082 189.204 67.8516C189.497 66.5918 189.863 65.1709 190.302 63.5889C190.742 61.9775 191.24 60.293 191.796 58.5352C192.353 56.7773 192.968 54.9902 193.642 53.1738C194.287 51.3281 194.99 49.5557 195.752 47.8564C196.982 48.4424 198.344 49.1602 199.838 50.0098C201.362 50.8594 202.768 51.8555 204.057 52.998Z" fill="black"/>
</svg>
